<?xml version="1.0" encoding="UTF-8"?>
<svg id="Camada_2" data-name="Camada 2" xmlns="http://www.w3.org/2000/svg" viewBox="0 0 824.48 824.59">
  <defs>
    <style>
      .cls-1 {
        fill: #f1986c;
      }
    </style>
  </defs>
  <g id="Camada_1-2" data-name="Camada 1">
    <g>
      <g>
        <g>
          <polygon class="cls-1" points=".56 199.48 .56 0 200.03 0 200.04 52.11 148.12 52.11 52.67 52.11 52.67 147.56 52.67 147.57 52.67 199.48 .56 199.48"/>
          <path class="cls-1" d="M84.34,116.04c-1.85-1.85-3.32-3.94-4.41-6.17-3.07-6.31-3.07-13.73,0-20.04,1.09-2.23,2.55-4.32,4.41-6.17s3.8-3.22,5.94-4.29c6.43-3.22,14.07-3.22,20.51,0,2.14,1.07,4.15,2.5,5.94,4.29,8.94,8.94,8.94,23.44,0,32.39-8.94,8.94-23.44,8.94-32.39,0Z"/>
          <path class="cls-1" d="M93.84,199.48v-51.91s11.42,0,11.42,0c23.67,0,42.86-19.19,42.87-42.87v-11.28h51.92s0,106.06,0,106.06h-106.19Z"/>
        </g>
        <g>
          <polygon class="cls-1" points="208.93 0 408.41 0 408.41 199.47 356.3 199.48 356.3 147.56 356.3 52.11 260.85 52.11 260.84 52.11 208.93 52.11 208.93 0"/>
          <path class="cls-1" d="M292.37,83.78c1.85-1.85,3.94-3.32,6.17-4.41,6.31-3.07,13.73-3.07,20.04,0,2.23,1.09,4.32,2.55,6.17,4.41s3.22,3.8,4.29,5.94c3.22,6.43,3.22,14.07,0,20.51-1.07,2.14-2.5,4.15-4.29,5.94-8.94,8.94-23.44,8.94-32.39,0s-8.94-23.44,0-32.39Z"/>
          <path class="cls-1" d="M208.93,93.28h51.91s0,11.42,0,11.42c0,23.67,19.19,42.86,42.87,42.87h11.28v51.92s-106.06,0-106.06,0v-106.19Z"/>
        </g>
        <g>
          <polygon class="cls-1" points="408.26 208.55 408.26 408.02 208.79 408.02 208.78 355.91 260.7 355.91 356.15 355.91 356.15 260.46 356.15 260.46 356.15 208.55 408.26 208.55"/>
          <path class="cls-1" d="M324.48,291.99c1.85,1.85,3.32,3.94,4.41,6.17,3.07,6.31,3.07,13.73,0,20.04-1.09,2.23-2.55,4.32-4.41,6.17-1.79,1.79-3.8,3.22-5.94,4.29-6.43,3.22-14.07,3.22-20.51,0-2.14-1.07-4.15-2.5-5.94-4.29-8.94-8.94-8.94-23.44,0-32.39,8.94-8.94,23.44-8.94,32.39,0Z"/>
          <path class="cls-1" d="M314.98,208.55v51.91s-11.42,0-11.42,0c-23.67,0-42.86,19.19-42.87,42.87v11.28h-51.92s0-106.06,0-106.06h106.19Z"/>
        </g>
        <g>
          <polygon class="cls-1" points="199.88 408.03 .41 408.02 .41 208.55 52.52 208.55 52.52 260.46 52.52 355.91 147.97 355.91 147.97 355.92 199.88 355.91 199.88 408.03"/>
          <path class="cls-1" d="M116.44,324.25c-1.85,1.85-3.94,3.32-6.17,4.41-6.31,3.07-13.73,3.07-20.04,0-2.23-1.09-4.32-2.55-6.17-4.41-1.79-1.79-3.22-3.8-4.29-5.94-3.22-6.43-3.22-14.07,0-20.51,1.07-2.14,2.5-4.15,4.29-5.94,8.94-8.94,23.44-8.94,32.39,0,8.94,8.94,8.94,23.44,0,32.39Z"/>
          <path class="cls-1" d="M199.88,314.74h-51.91s0-11.42,0-11.42c0-23.67-19.19-42.86-42.87-42.87h-11.28v-51.92s106.06,0,106.06,0v106.19Z"/>
        </g>
      </g>
      <g>
        <g>
          <polygon class="cls-1" points="416.63 199.48 416.64 0 616.11 0 616.11 52.11 564.2 52.11 468.74 52.11 468.74 147.56 468.74 147.57 468.74 199.48 416.63 199.48"/>
          <path class="cls-1" d="M500.41,116.04c-1.85-1.85-3.32-3.94-4.41-6.17-3.07-6.31-3.07-13.73,0-20.04,1.09-2.23,2.55-4.32,4.41-6.17,1.79-1.79,3.8-3.22,5.94-4.29,6.43-3.22,14.07-3.22,20.51,0,2.14,1.07,4.15,2.5,5.94,4.29,8.94,8.94,8.94,23.44,0,32.39-8.94,8.94-23.44,8.94-32.39,0Z"/>
          <path class="cls-1" d="M509.91,199.48v-51.91s11.42,0,11.42,0c23.67,0,42.86-19.19,42.87-42.87v-11.28h51.92s0,106.06,0,106.06h-106.19Z"/>
        </g>
        <g>
          <polygon class="cls-1" points="625.01 0 824.48 0 824.48 199.47 772.37 199.48 772.37 147.56 772.37 52.11 676.92 52.11 676.92 52.11 625.01 52.11 625.01 0"/>
          <path class="cls-1" d="M708.45,83.78c1.85-1.85,3.94-3.32,6.17-4.41,6.31-3.07,13.73-3.07,20.04,0,2.23,1.09,4.32,2.55,6.17,4.41s3.22,3.8,4.29,5.94c3.22,6.43,3.22,14.07,0,20.51-1.07,2.14-2.5,4.15-4.29,5.94-8.94,8.94-23.44,8.94-32.39,0s-8.94-23.44,0-32.39Z"/>
          <path class="cls-1" d="M625.01,93.28h51.91s0,11.42,0,11.42c0,23.67,19.19,42.86,42.87,42.87h11.28v51.92s-106.06,0-106.06,0v-106.19Z"/>
        </g>
        <g>
          <polygon class="cls-1" points="824.34 208.55 824.33 408.02 624.86 408.02 624.86 355.91 676.77 355.91 772.22 355.91 772.22 260.46 772.23 260.46 772.22 208.55 824.34 208.55"/>
          <path class="cls-1" d="M740.56,291.99c1.85,1.85,3.32,3.94,4.41,6.17,3.07,6.31,3.07,13.73,0,20.04-1.09,2.23-2.55,4.32-4.41,6.17s-3.8,3.22-5.94,4.29c-6.43,3.22-14.07,3.22-20.51,0-2.14-1.07-4.15-2.5-5.94-4.29-8.94-8.94-8.94-23.44,0-32.39,8.94-8.94,23.44-8.94,32.39,0Z"/>
          <path class="cls-1" d="M731.05,208.55v51.91s-11.42,0-11.42,0c-23.67,0-42.86,19.19-42.87,42.87v11.28h-51.92s0-106.06,0-106.06h106.19Z"/>
        </g>
        <g>
          <polygon class="cls-1" points="615.96 408.03 416.48 408.02 416.48 208.55 468.59 208.55 468.59 260.46 468.59 355.91 564.04 355.91 564.05 355.92 615.96 355.91 615.96 408.03"/>
          <path class="cls-1" d="M532.52,324.25c-1.85,1.85-3.94,3.32-6.17,4.41-6.31,3.07-13.73,3.07-20.04,0-2.23-1.09-4.32-2.55-6.17-4.41-1.79-1.79-3.22-3.8-4.29-5.94-3.22-6.43-3.22-14.07,0-20.51,1.07-2.14,2.5-4.15,4.29-5.94,8.94-8.94,23.44-8.94,32.39,0s8.94,23.44,0,32.39Z"/>
          <path class="cls-1" d="M615.96,314.74h-51.91s0-11.42,0-11.42c0-23.67-19.19-42.86-42.87-42.87h-11.28v-51.92h106.06v106.2Z"/>
        </g>
      </g>
      <g>
        <g>
          <polygon class="cls-1" points=".15 616.04 .15 416.57 199.62 416.57 199.63 468.67 147.71 468.67 52.26 468.67 52.26 564.13 52.26 564.13 52.26 616.04 .15 616.04"/>
          <path class="cls-1" d="M83.93,532.6c-1.85-1.85-3.32-3.94-4.41-6.17-3.07-6.31-3.07-13.73,0-20.04,1.09-2.23,2.55-4.32,4.41-6.17,1.79-1.79,3.8-3.22,5.94-4.29,6.43-3.22,14.07-3.22,20.51,0,2.14,1.07,4.15,2.5,5.94,4.29,8.94,8.94,8.94,23.44,0,32.39-8.94,8.94-23.44,8.94-32.39,0Z"/>
          <path class="cls-1" d="M93.43,616.04v-51.91s11.42,0,11.42,0c23.67,0,42.86-19.19,42.87-42.87v-11.28h51.92v106.06h-106.2Z"/>
        </g>
        <g>
          <polygon class="cls-1" points="208.52 416.56 408 416.56 408 616.04 355.89 616.04 355.89 564.13 355.89 468.67 260.44 468.67 260.44 468.67 208.52 468.67 208.52 416.56"/>
          <path class="cls-1" d="M291.96,500.34c1.85-1.85,3.94-3.32,6.17-4.41,6.31-3.07,13.73-3.07,20.04,0,2.23,1.09,4.32,2.55,6.17,4.41,1.79,1.79,3.22,3.8,4.29,5.94,3.22,6.43,3.22,14.07,0,20.51-1.07,2.14-2.5,4.15-4.29,5.94-8.94,8.94-23.44,8.94-32.39,0-8.94-8.94-8.94-23.44,0-32.39Z"/>
          <path class="cls-1" d="M208.52,509.84h51.91s0,11.42,0,11.42c0,23.67,19.19,42.86,42.87,42.87h11.28v51.92s-106.06,0-106.06,0v-106.19Z"/>
        </g>
        <g>
          <polygon class="cls-1" points="407.85 625.11 407.85 824.58 208.38 824.58 208.37 772.47 260.29 772.47 355.74 772.47 355.74 677.02 355.74 677.02 355.74 625.11 407.85 625.11"/>
          <path class="cls-1" d="M324.07,708.55c1.85,1.85,3.32,3.94,4.41,6.17,3.07,6.31,3.07,13.73,0,20.04-1.09,2.23-2.55,4.32-4.41,6.17s-3.8,3.22-5.94,4.29c-6.43,3.22-14.07,3.22-20.51,0-2.14-1.07-4.15-2.5-5.94-4.29-8.94-8.94-8.94-23.44,0-32.39,8.94-8.94,23.44-8.94,32.39,0Z"/>
          <path class="cls-1" d="M314.57,625.11v51.91s-11.42,0-11.42,0c-23.67,0-42.86,19.19-42.87,42.87v11.28h-51.92s0-106.06,0-106.06h106.19Z"/>
        </g>
        <g>
          <polygon class="cls-1" points="199.47 824.59 0 824.58 0 625.11 52.11 625.11 52.11 677.02 52.11 772.47 147.56 772.47 147.56 772.48 199.47 772.47 199.47 824.59"/>
          <path class="cls-1" d="M116.04,740.81c-1.85,1.85-3.94,3.32-6.17,4.41-6.31,3.07-13.73,3.07-20.04,0-2.23-1.09-4.32-2.55-6.17-4.41s-3.22-3.8-4.29-5.94c-3.22-6.43-3.22-14.07,0-20.51,1.07-2.14,2.5-4.15,4.29-5.94,8.94-8.94,23.44-8.94,32.39,0s8.94,23.44,0,32.39Z"/>
          <path class="cls-1" d="M199.47,731.3h-51.91s0-11.42,0-11.42c0-23.67-19.19-42.86-42.87-42.87h-11.28v-51.92s106.06,0,106.06,0v106.19Z"/>
        </g>
      </g>
      <g>
        <g>
          <polygon class="cls-1" points="416.22 616.04 416.23 416.57 615.7 416.57 615.7 468.67 563.79 468.67 468.34 468.67 468.34 564.13 468.33 564.13 468.34 616.04 416.22 616.04"/>
          <path class="cls-1" d="M500,532.6c-1.85-1.85-3.32-3.94-4.41-6.17-3.07-6.31-3.07-13.73,0-20.04,1.09-2.23,2.55-4.32,4.41-6.17,1.79-1.79,3.8-3.22,5.94-4.29,6.43-3.22,14.07-3.22,20.51,0,2.14,1.07,4.15,2.5,5.94,4.29,8.94,8.94,8.94,23.44,0,32.39-8.94,8.94-23.44,8.94-32.39,0Z"/>
          <path class="cls-1" d="M509.5,616.04v-51.91s11.42,0,11.42,0c23.67,0,42.86-19.19,42.87-42.87v-11.28h51.92v106.06h-106.2Z"/>
        </g>
        <g>
          <polygon class="cls-1" points="624.6 416.56 824.07 416.56 824.07 616.04 771.97 616.04 771.97 564.13 771.97 468.67 676.51 468.67 676.51 468.67 624.6 468.67 624.6 416.56"/>
          <path class="cls-1" d="M708.04,500.34c1.85-1.85,3.94-3.32,6.17-4.41,6.31-3.07,13.73-3.07,20.04,0,2.23,1.09,4.32,2.55,6.17,4.41,1.79,1.79,3.22,3.8,4.29,5.94,3.22,6.43,3.22,14.07,0,20.51-1.07,2.14-2.5,4.15-4.29,5.94-8.94,8.94-23.44,8.94-32.39,0-8.94-8.94-8.94-23.44,0-32.39Z"/>
          <path class="cls-1" d="M624.6,509.84h51.91s0,11.42,0,11.42c0,23.67,19.19,42.86,42.87,42.87h11.28v51.92s-106.06,0-106.06,0v-106.19Z"/>
        </g>
        <g>
          <polygon class="cls-1" points="823.93 625.11 823.92 824.58 624.45 824.58 624.45 772.47 676.36 772.47 771.81 772.47 771.81 677.02 771.82 677.02 771.81 625.11 823.93 625.11"/>
          <path class="cls-1" d="M740.15,708.55c1.85,1.85,3.32,3.94,4.41,6.17,3.07,6.31,3.07,13.73,0,20.04-1.09,2.23-2.55,4.32-4.41,6.17-1.79,1.79-3.8,3.22-5.94,4.29-6.43,3.22-14.07,3.22-20.51,0-2.14-1.07-4.15-2.5-5.94-4.29-8.94-8.94-8.94-23.44,0-32.39,8.94-8.94,23.44-8.94,32.39,0Z"/>
          <path class="cls-1" d="M730.64,625.11v51.91s-11.42,0-11.42,0c-23.67,0-42.86,19.19-42.87,42.87v11.28h-51.92s0-106.06,0-106.06h106.19Z"/>
        </g>
        <g>
          <polygon class="cls-1" points="615.55 824.59 416.08 824.58 416.08 625.11 468.18 625.11 468.18 677.02 468.18 772.47 563.64 772.47 563.64 772.48 615.55 772.47 615.55 824.59"/>
          <path class="cls-1" d="M532.11,740.81c-1.85,1.85-3.94,3.32-6.17,4.41-6.31,3.07-13.73,3.07-20.04,0-2.23-1.09-4.32-2.55-6.17-4.41s-3.22-3.8-4.29-5.94c-3.22-6.43-3.22-14.07,0-20.51,1.07-2.14,2.5-4.15,4.29-5.94,8.94-8.94,23.44-8.94,32.39,0s8.94,23.44,0,32.39Z"/>
          <path class="cls-1" d="M615.55,731.3h-51.91s0-11.42,0-11.42c0-23.67-19.19-42.86-42.87-42.87h-11.28v-51.92h106.06v106.2Z"/>
        </g>
      </g>
    </g>
  </g>
</svg>