<?xml version="1.0" encoding="UTF-8"?>
<svg id="Camada_2" data-name="Camada 2" xmlns="http://www.w3.org/2000/svg" viewBox="0 0 1598.49 192.92">
  <defs>
    <style>
      .cls-1 {
        fill: #f1986c;
      }
    </style>
  </defs>
  <g id="Camada_1-2" data-name="Camada 1">
    <g>
      <g>
        <polygon class="cls-1" points="0 96.46 96.46 0 192.92 96.46 167.73 121.66 142.62 96.56 96.46 50.4 50.3 96.56 50.3 96.56 25.2 121.66 0 96.46"/>
        <path class="cls-1" d="M80.86,96.63c0-1.79.3-3.51.85-5.12,1.57-4.54,5.16-8.13,9.69-9.69,1.6-.55,3.32-.85,5.12-.85s3.39.28,4.95.8c4.67,1.55,8.36,5.25,9.92,9.92.52,1.56.8,3.22.8,4.95,0,8.65-7.01,15.66-15.66,15.66s-15.66-7.01-15.66-15.66Z"/>
        <path class="cls-1" d="M45.11,141.57l25.11-25.1,5.52,5.52c11.45,11.45,30.01,11.45,41.46,0l5.46-5.46,25.11,25.11-51.29,51.28-51.35-51.35Z"/>
      </g>
      <g>
        <polygon class="cls-1" points="397.95 96.46 301.49 192.92 205.03 96.46 230.22 71.26 255.33 96.37 301.49 142.53 347.65 96.37 347.65 96.37 372.75 71.26 397.95 96.46"/>
        <path class="cls-1" d="M317.09,96.3c0,1.79-.3,3.51-.85,5.12-1.57,4.54-5.16,8.13-9.69,9.69-1.6.55-3.32.85-5.12.85s-3.39-.28-4.95-.8c-4.67-1.55-8.36-5.25-9.92-9.92-.52-1.56-.8-3.22-.8-4.95,0-8.65,7.01-15.66,15.66-15.66s15.66,7.01,15.66,15.66Z"/>
        <path class="cls-1" d="M352.84,51.35l-25.11,25.1-5.52-5.52c-11.45-11.45-30.01-11.45-41.46,0l-5.46,5.46-25.11-25.11L301.49,0l51.35,51.35Z"/>
      </g>
      <g>
        <polygon class="cls-1" points="409.03 96.46 505.49 0 601.95 96.46 576.75 121.66 551.65 96.56 505.49 50.4 459.33 96.56 459.33 96.56 434.23 121.66 409.03 96.46"/>
        <path class="cls-1" d="M489.89,96.63c0-1.79.3-3.51.85-5.12,1.57-4.54,5.16-8.13,9.69-9.69,1.6-.55,3.32-.85,5.12-.85s3.39.28,4.95.8c4.67,1.55,8.36,5.25,9.92,9.92.52,1.56.8,3.22.8,4.95,0,8.65-7.01,15.66-15.66,15.66s-15.66-7.01-15.66-15.66Z"/>
        <path class="cls-1" d="M454.14,141.57l25.11-25.1,5.52,5.52c11.45,11.45,30.01,11.45,41.46,0l5.46-5.46,25.11,25.11-51.29,51.28-51.35-51.35Z"/>
      </g>
      <g>
        <polygon class="cls-1" points="613.2 96.46 709.66 0 806.12 96.46 780.93 121.66 755.82 96.56 709.66 50.4 663.5 96.56 663.5 96.56 638.4 121.66 613.2 96.46"/>
        <path class="cls-1" d="M694.06,96.63c0-1.79.3-3.51.85-5.12,1.57-4.54,5.16-8.13,9.69-9.69,1.6-.55,3.32-.85,5.12-.85s3.39.28,4.95.8c4.67,1.55,8.36,5.25,9.92,9.92.52,1.56.8,3.22.8,4.95,0,8.65-7.01,15.66-15.66,15.66s-15.66-7.01-15.66-15.66Z"/>
        <path class="cls-1" d="M658.31,141.57l25.11-25.1,5.52,5.52c11.45,11.45,30.01,11.45,41.46,0l5.46-5.46,25.11,25.11-51.29,51.28-51.35-51.35Z"/>
      </g>
      <g>
        <polygon class="cls-1" points="958.3 164.67 821.88 164.67 821.88 28.26 857.51 28.25 857.51 63.76 857.51 129.04 922.79 129.04 922.8 129.04 958.3 129.04 958.3 164.67"/>
        <path class="cls-1" d="M901.23,107.38c-1.27,1.27-2.7,2.27-4.22,3.01-4.31,2.1-9.39,2.1-13.71,0-1.53-.74-2.95-1.75-4.22-3.01-1.22-1.22-2.2-2.6-2.93-4.06-2.2-4.4-2.2-9.62,0-14.02.73-1.47,1.71-2.84,2.93-4.06,6.12-6.12,16.03-6.12,22.15,0,6.12,6.12,6.12,16.03,0,22.15Z"/>
        <path class="cls-1" d="M958.3,100.88h-35.5s0-7.81,0-7.81c0-16.19-13.13-29.31-29.32-29.32h-7.72V28.25h72.53v72.63Z"/>
      </g>
      <g>
        <polygon class="cls-1" points="1145.68 192.92 1049.22 96.46 1145.68 0 1170.88 25.2 1145.77 50.3 1099.61 96.46 1145.77 142.62 1145.77 142.62 1170.88 167.72 1145.68 192.92"/>
        <path class="cls-1" d="M1145.84,112.06c-1.79,0-3.51-.3-5.12-.85-4.54-1.57-8.13-5.16-9.69-9.69-.55-1.6-.85-3.32-.85-5.12s.28-3.39.8-4.95c1.55-4.67,5.25-8.36,9.92-9.92,1.56-.52,3.22-.8,4.95-.8,8.65,0,15.66,7.01,15.66,15.66s-7.01,15.66-15.66,15.66Z"/>
        <path class="cls-1" d="M1190.79,147.82l-25.1-25.11,5.52-5.52c11.45-11.45,11.45-30.01,0-41.46l-5.46-5.46,25.11-25.11,51.28,51.29-51.35,51.35Z"/>
      </g>
      <g>
        <polygon class="cls-1" points="1253.39 96.46 1349.85 0 1446.31 96.46 1421.12 121.66 1396.01 96.56 1349.85 50.4 1303.69 96.56 1303.69 96.56 1278.59 121.66 1253.39 96.46"/>
        <path class="cls-1" d="M1334.25,96.63c0-1.79.3-3.51.85-5.12,1.57-4.54,5.16-8.13,9.69-9.69,1.6-.55,3.32-.85,5.12-.85s3.39.28,4.95.8c4.67,1.55,8.36,5.25,9.92,9.92.52,1.56.8,3.22.8,4.95,0,8.65-7.01,15.66-15.66,15.66s-15.66-7.01-15.66-15.66Z"/>
        <path class="cls-1" d="M1298.5,141.57l25.11-25.1,5.52,5.52c11.45,11.45,30.01,11.45,41.46,0l5.46-5.46,25.11,25.11-51.29,51.28-51.35-51.35Z"/>
      </g>
      <g>
        <polygon class="cls-1" points="1598.49 28.26 1598.49 164.67 1462.07 164.67 1462.07 129.04 1497.57 129.04 1562.85 129.04 1562.85 63.76 1562.85 63.76 1562.85 28.26 1598.49 28.26"/>
        <path class="cls-1" d="M1541.19,85.32c1.27,1.27,2.27,2.7,3.01,4.22,2.1,4.31,2.1,9.39,0,13.71-.74,1.53-1.75,2.95-3.01,4.22-1.22,1.22-2.6,2.2-4.06,2.93-4.4,2.2-9.62,2.2-14.02,0-1.47-.73-2.84-1.71-4.06-2.93-6.12-6.12-6.12-16.03,0-22.15,6.12-6.12,16.03-6.12,22.15,0Z"/>
        <path class="cls-1" d="M1534.69,28.26v35.5s-7.81,0-7.81,0c-16.19,0-29.31,13.13-29.32,29.32v7.72h-35.51V28.26h72.63Z"/>
      </g>
    </g>
  </g>
</svg>