<?xml version="1.0" encoding="UTF-8"?>
<svg id="Camada_2" data-name="Camada 2" xmlns="http://www.w3.org/2000/svg" viewBox="0 0 823.64 823.94">
  <defs>
    <style>
      .cls-1 {
        fill: #f9f9f9;
      }
    </style>
  </defs>
  <g id="Camada_1-2" data-name="Camada 1">
    <g>
      <g>
        <path class="cls-1" d="M198.89,1v197.47H1.42v-50.11s50.91,0,50.91,0h96.45V52.33h0V1s50.11,0,50.11,0M199.89,0h-52.11v51.91s0,0,0,0v95.45H.41v52.11h199.47V0h0Z"/>
        <path class="cls-1" d="M99.92,77.74c5.85,0,11.35,2.28,15.49,6.41,1.74,1.74,3.15,3.72,4.21,5.9,2.92,6,2.92,13.17,0,19.17-1.06,2.18-2.48,4.17-4.21,5.9-1.67,1.67-3.58,3.05-5.68,4.1-3.02,1.51-6.41,2.31-9.81,2.31s-6.79-.8-9.8-2.31c-2.1-1.05-4.01-2.43-5.68-4.1-8.54-8.54-8.54-22.43,0-30.97,4.14-4.14,9.64-6.41,15.49-6.41M99.92,76.74c-5.86,0-11.72,2.24-16.19,6.71-8.94,8.94-8.94,23.44,0,32.39,1.79,1.79,3.8,3.22,5.94,4.29,3.22,1.61,6.73,2.42,10.25,2.42s7.04-.81,10.25-2.42c2.14-1.07,4.15-2.5,5.94-4.29,1.85-1.85,3.32-3.94,4.41-6.17,3.07-6.31,3.07-13.73,0-20.04-1.08-2.23-2.56-4.32-4.41-6.17-4.47-4.47-10.33-6.71-16.19-6.71h0Z"/>
        <path class="cls-1" d="M105.61,1v49.91s-10.42,0-10.42,0c-24.18,0-43.86,19.68-43.87,43.87v10.28H1.41V1h104.2M106.61,0H.42v106.06s51.91,0,51.91,0v-11.28c0-23.67,19.19-42.86,42.87-42.87h11.41s0-51.91,0-51.91h0Z"/>
      </g>
      <g>
        <path class="cls-1" d="M614.97,1v197.47h-197.47v-50.11s50.91,0,50.91,0h96.45V52.33h0V1s50.11,0,50.11,0M615.97,0h-52.11v51.91s0,0,0,0v95.45h-147.37v52.11h199.47V0h0Z"/>
        <path class="cls-1" d="M516,77.74c5.85,0,11.35,2.28,15.49,6.41,1.74,1.74,3.15,3.72,4.21,5.9,2.92,6,2.92,13.17,0,19.17-1.06,2.18-2.48,4.17-4.21,5.9-1.67,1.67-3.58,3.05-5.68,4.1-3.02,1.51-6.41,2.31-9.8,2.31s-6.79-.8-9.8-2.31c-2.1-1.05-4.01-2.43-5.68-4.1-8.54-8.54-8.54-22.43,0-30.97,4.14-4.14,9.64-6.41,15.49-6.41M516,76.74c-5.86,0-11.72,2.24-16.19,6.71-8.94,8.94-8.94,23.44,0,32.39,1.79,1.79,3.8,3.22,5.94,4.29,3.22,1.61,6.73,2.42,10.25,2.42s7.04-.81,10.25-2.42c2.14-1.07,4.15-2.5,5.94-4.29,1.85-1.85,3.32-3.94,4.41-6.17,3.07-6.31,3.07-13.73,0-20.04-1.08-2.23-2.55-4.32-4.41-6.17-4.47-4.47-10.33-6.71-16.19-6.71h0Z"/>
        <path class="cls-1" d="M521.68,1v49.91s-10.42,0-10.42,0c-24.18,0-43.86,19.68-43.87,43.87v10.28h-49.92V1h104.2M522.68,0h-106.19v106.06s51.91,0,51.91,0v-11.28c0-23.67,19.19-42.86,42.87-42.87h11.41s0-51.91,0-51.91h0Z"/>
      </g>
      <g>
        <path class="cls-1" d="M259.22,1v147.37h96.04s.42,0,.42,0h50.91s0,50.11,0,50.11h-197.48V1.01h50.11M260.22,0h-52.11v199.47h199.48s0-52.11,0-52.11h-51.91s0,0,0,0h-95.45V0h0Z"/>
        <path class="cls-1" d="M307.96,77.61c5.85,0,11.35,2.28,15.49,6.41,8.54,8.54,8.54,22.43,0,30.97-1.74,1.74-3.72,3.15-5.9,4.21-2.96,1.44-6.27,2.2-9.58,2.2s-6.62-.76-9.58-2.2c-2.18-1.06-4.17-2.48-5.9-4.21-1.67-1.67-3.05-3.58-4.1-5.68-3.08-6.14-3.08-13.47,0-19.61,1.05-2.1,2.43-4.01,4.1-5.68,4.14-4.14,9.64-6.41,15.49-6.41M307.96,76.61c-5.86,0-11.72,2.24-16.19,6.71-1.79,1.79-3.22,3.8-4.29,5.94-3.22,6.43-3.22,14.07,0,20.51,1.07,2.14,2.5,4.15,4.29,5.94,1.85,1.85,3.94,3.32,6.17,4.41,3.15,1.53,6.59,2.3,10.02,2.3s6.87-.77,10.02-2.3c2.23-1.08,4.32-2.55,6.17-4.41,8.94-8.94,8.94-23.44,0-32.39-4.47-4.47-10.33-6.71-16.19-6.71h0Z"/>
        <path class="cls-1" d="M302.53,1h104.06v104.2h-49.91s0-10.42,0-10.42c0-24.18-19.68-43.86-43.87-43.87h-10.28V1M301.53,0v51.92h11.28c23.67,0,42.86,19.19,42.87,42.87v11.41s51.91,0,51.91,0V0h-106.06Z"/>
      </g>
      <g>
        <path class="cls-1" d="M675.27,1v147.37h96.04s.41,0,.41,0h50.91s0,50.11,0,50.11h-197.47V1.01h50.11M676.27,0h-52.11v199.47h199.47s0-52.11,0-52.11h-51.91s0,0,0,0h-95.45V0h0Z"/>
        <path class="cls-1" d="M724.01,77.61c5.85,0,11.35,2.28,15.49,6.41,8.54,8.54,8.54,22.43,0,30.97-1.74,1.74-3.72,3.15-5.9,4.21-2.96,1.44-6.27,2.2-9.58,2.2s-6.62-.76-9.58-2.2c-2.18-1.06-4.17-2.48-5.9-4.21-1.67-1.67-3.05-3.58-4.1-5.68-3.08-6.14-3.08-13.47,0-19.61,1.05-2.1,2.43-4.01,4.1-5.68,4.14-4.14,9.64-6.41,15.49-6.41M724.01,76.61c-5.86,0-11.72,2.24-16.19,6.71-1.79,1.79-3.22,3.8-4.29,5.94-3.22,6.43-3.22,14.07,0,20.51,1.07,2.14,2.5,4.15,4.29,5.94,1.85,1.85,3.94,3.32,6.17,4.41,3.15,1.53,6.59,2.3,10.02,2.3s6.87-.77,10.02-2.3c2.23-1.08,4.32-2.55,6.17-4.41,8.94-8.94,8.94-23.44,0-32.39-4.47-4.47-10.33-6.71-16.19-6.71h0Z"/>
        <path class="cls-1" d="M718.58,1h104.06v104.2h-49.91s0-10.42,0-10.42c0-24.18-19.68-43.86-43.87-43.87h-10.28V1M717.58,0v51.92h11.28c23.67,0,42.86,19.19,42.87,42.87v11.41s51.91,0,51.91,0V0h-106.06Z"/>
      </g>
      <g>
        <path class="cls-1" d="M1.16,209.02h197.47v197.47h-50.11s0-50.91,0-50.91v-96.45H52.48s-.42,0-.42,0H1.16s0-50.11,0-50.11M.16,208.02v52.11h51.91s0,0,0,0h95.45v147.37h52.11v-199.47H.16Z"/>
        <path class="cls-1" d="M99.79,285.09v1c3.31,0,6.62.76,9.58,2.2,2.18,1.06,4.17,2.48,5.9,4.21,1.67,1.67,3.05,3.58,4.1,5.68,3.07,6.14,3.07,13.47,0,19.61-1.05,2.1-2.43,4.01-4.1,5.68-4.14,4.14-9.64,6.41-15.49,6.41s-11.35-2.28-15.49-6.41c-8.54-8.54-8.54-22.43,0-30.97,1.74-1.74,3.72-3.15,5.9-4.21,2.96-1.44,6.27-2.2,9.58-2.2v-1M99.79,285.09c-3.43,0-6.87.77-10.02,2.3-2.23,1.08-4.32,2.55-6.17,4.41-8.94,8.94-8.94,23.44,0,32.39,4.47,4.47,10.33,6.71,16.19,6.71s11.72-2.24,16.19-6.71c1.79-1.79,3.22-3.8,4.29-5.94,3.22-6.43,3.22-14.07,0-20.51-1.07-2.14-2.5-4.15-4.29-5.94-1.85-1.85-3.94-3.32-6.17-4.41-3.15-1.53-6.59-2.3-10.02-2.3h0Z"/>
        <path class="cls-1" d="M1.16,302.3h49.91s0,10.42,0,10.42c0,24.18,19.68,43.86,43.87,43.87h10.28v49.92H1.16v-104.2M.16,301.3v106.19h106.06s0-51.91,0-51.91h-11.28c-23.67,0-42.86-19.19-42.87-42.87v-11.41s-51.91,0-51.91,0H.16Z"/>
      </g>
      <g>
        <path class="cls-1" d="M198.48,417.57v197.47H1.01v-50.11s50.91,0,50.91,0h96.45v-96.04h0v-51.33s50.11,0,50.11,0M199.48,416.57h-52.11v51.91s0,0,0,0v95.45H0v52.11h199.47v-199.47h0Z"/>
        <path class="cls-1" d="M99.51,494.3c5.85,0,11.35,2.28,15.49,6.41,1.74,1.74,3.15,3.72,4.21,5.9,2.92,6,2.92,13.16,0,19.17-1.06,2.18-2.48,4.17-4.21,5.9-1.67,1.67-3.58,3.05-5.68,4.1-3.02,1.51-6.41,2.31-9.81,2.31s-6.79-.8-9.8-2.31c-2.1-1.05-4.01-2.43-5.68-4.1-8.54-8.54-8.54-22.43,0-30.97,4.14-4.14,9.64-6.41,15.49-6.41M99.51,493.3c-5.86,0-11.72,2.24-16.19,6.71-8.94,8.94-8.94,23.44,0,32.39,1.79,1.79,3.8,3.22,5.94,4.29,3.22,1.61,6.73,2.42,10.25,2.42s7.04-.81,10.25-2.42c2.14-1.07,4.15-2.5,5.94-4.29,1.85-1.85,3.32-3.94,4.41-6.17,3.07-6.31,3.07-13.73,0-20.04-1.08-2.23-2.55-4.32-4.41-6.17-4.47-4.47-10.33-6.71-16.19-6.71h0Z"/>
        <path class="cls-1" d="M105.2,417.57v49.91s-10.42,0-10.42,0c-24.19,0-43.86,19.68-43.87,43.87v10.28H1v-104.06h104.2M106.2,416.57H0v106.06s51.91,0,51.91,0v-11.28c0-23.67,19.19-42.86,42.87-42.87h11.41s0-51.91,0-51.91h0Z"/>
      </g>
      <g>
        <path class="cls-1" d="M1,625.46h197.48v197.47h-50.11s0-50.91,0-50.91v-96.45H52.33s-.41,0-.41,0H1s0-50.11,0-50.11M0,624.46v52.11h51.91s0,0,0,0h95.45v147.37h52.11v-199.47H0Z"/>
        <path class="cls-1" d="M99.63,702.53c3.31,0,6.62.76,9.58,2.2,2.18,1.06,4.17,2.48,5.9,4.21,1.67,1.67,3.05,3.58,4.1,5.68,3.07,6.14,3.07,13.47,0,19.61-1.05,2.1-2.43,4.01-4.1,5.68-4.14,4.14-9.64,6.42-15.49,6.42s-11.35-2.28-15.49-6.42c-8.54-8.54-8.54-22.43,0-30.97,1.74-1.74,3.72-3.15,5.9-4.21,2.96-1.44,6.27-2.2,9.58-2.2M99.63,701.53c-3.43,0-6.87.77-10.02,2.3-2.23,1.08-4.32,2.55-6.17,4.41-8.94,8.94-8.94,23.44,0,32.39,4.47,4.47,10.33,6.71,16.19,6.71s11.72-2.24,16.19-6.71c1.79-1.79,3.22-3.8,4.29-5.94,3.22-6.43,3.22-14.07,0-20.51-1.07-2.14-2.5-4.15-4.29-5.94-1.85-1.85-3.94-3.32-6.17-4.41-3.15-1.54-6.59-2.3-10.02-2.3h0Z"/>
        <path class="cls-1" d="M1,718.74h49.91s0,10.42,0,10.42c0,24.18,19.68,43.86,43.87,43.87h10.28v49.92H1v-104.2M0,717.74v106.19h106.06s0-51.91,0-51.91h-11.28c-23.67,0-42.86-19.19-42.87-42.87v-11.41s-51.91,0-51.91,0H0Z"/>
      </g>
      <g>
        <path class="cls-1" d="M406.17,625.46v50.11s-50.91,0-50.91,0h-96.45v96.04h0v51.33s-50.11,0-50.11,0v-197.47h197.47M407.17,624.46h-199.47v199.47s52.11,0,52.11,0v-51.91s0,0,0,0v-95.45h147.37v-52.11h0Z"/>
        <path class="cls-1" d="M307.67,702.4c3.4,0,6.79.8,9.8,2.31,2.1,1.05,4.01,2.43,5.68,4.1,8.54,8.54,8.54,22.43,0,30.97-4.14,4.14-9.64,6.41-15.49,6.41s-11.35-2.28-15.49-6.41c-1.74-1.74-3.15-3.72-4.21-5.9-2.92-6-2.92-13.16,0-19.17,1.06-2.18,2.48-4.17,4.21-5.9,1.67-1.67,3.58-3.05,5.68-4.1,3.02-1.51,6.41-2.31,9.81-2.31M307.67,701.4c-3.52,0-7.04.81-10.25,2.42-2.14,1.07-4.15,2.5-5.94,4.29s-3.32,3.94-4.41,6.17c-3.07,6.31-3.07,13.73,0,20.04,1.08,2.23,2.55,4.32,4.41,6.17,4.47,4.47,10.33,6.71,16.19,6.71s11.72-2.24,16.19-6.71c8.94-8.94,8.94-23.44,0-32.39-1.79-1.79-3.8-3.22-5.94-4.29-3.22-1.61-6.73-2.42-10.25-2.42h0Z"/>
        <path class="cls-1" d="M406.18,718.88v104.06h-104.2v-49.91s10.42,0,10.42,0c24.18,0,43.86-19.68,43.87-43.87v-10.28h49.92M407.18,717.88h-51.92v11.28c0,23.67-19.19,42.86-42.87,42.87h-11.41s0,51.91,0,51.91h106.19v-106.06h0Z"/>
      </g>
      <g>
        <path class="cls-1" d="M417.08,625.46h197.47v197.47h-50.11s0-50.91,0-50.91v-96.45h-96.08s-.37,0-.37,0h-50.91s0-50.11,0-50.11M416.08,624.46v52.11h51.91s0,0,0,0h95.45v147.37h52.11v-199.47h-199.47Z"/>
        <path class="cls-1" d="M515.71,702.53c3.31,0,6.62.76,9.58,2.2,2.18,1.06,4.17,2.48,5.9,4.21,1.67,1.67,3.05,3.58,4.1,5.68,3.07,6.14,3.07,13.47,0,19.61-1.05,2.1-2.43,4.01-4.1,5.68-4.14,4.14-9.64,6.42-15.49,6.42s-11.35-2.28-15.49-6.42c-8.54-8.54-8.54-22.43,0-30.97,1.74-1.74,3.72-3.15,5.9-4.21,2.96-1.44,6.27-2.2,9.58-2.2M515.71,701.53c-3.43,0-6.87.77-10.02,2.3-2.23,1.08-4.32,2.55-6.17,4.41-8.94,8.94-8.94,23.44,0,32.39,4.47,4.47,10.33,6.71,16.19,6.71s11.72-2.24,16.19-6.71c1.79-1.79,3.22-3.8,4.29-5.94,3.22-6.43,3.22-14.07,0-20.51-1.07-2.14-2.5-4.15-4.29-5.94s-3.94-3.32-6.17-4.41c-3.15-1.54-6.59-2.3-10.02-2.3h0Z"/>
        <path class="cls-1" d="M417.08,718.74h49.91s0,10.42,0,10.42c0,24.18,19.68,43.86,43.87,43.87h10.28v49.92h-104.06v-104.2M416.08,717.74v106.19h106.06s0-51.91,0-51.91h-11.28c-23.67,0-42.86-19.19-42.87-42.87v-11.41s-51.91,0-51.91,0h0Z"/>
      </g>
      <g>
        <path class="cls-1" d="M822.22,625.46v50.11s-50.91,0-50.91,0h-96.45v96.04h0v51.33s-50.11,0-50.11,0v-197.47h197.47M823.22,624.46h-199.47v199.47s52.11,0,52.11,0v-51.91s0,0,0,0v-95.45h147.37v-52.11h0Z"/>
        <path class="cls-1" d="M723.72,702.4c3.4,0,6.79.8,9.8,2.31,2.1,1.05,4.01,2.43,5.68,4.1,4.14,4.14,6.42,9.64,6.42,15.49s-2.28,11.35-6.42,15.49c-4.14,4.14-9.64,6.41-15.49,6.41s-11.35-2.28-15.49-6.41c-1.74-1.74-3.15-3.72-4.21-5.9-2.92-6-2.92-13.16,0-19.17,1.06-2.18,2.48-4.17,4.21-5.9,1.67-1.67,3.58-3.05,5.68-4.1,3.02-1.51,6.41-2.31,9.81-2.31M723.72,701.4c-3.52,0-7.04.81-10.25,2.42-2.14,1.07-4.15,2.5-5.94,4.29s-3.32,3.94-4.41,6.17c-3.07,6.31-3.07,13.73,0,20.04,1.08,2.23,2.55,4.32,4.41,6.17,4.47,4.47,10.33,6.71,16.19,6.71s11.72-2.24,16.19-6.71c8.94-8.94,8.94-23.44,0-32.39-1.79-1.79-3.8-3.22-5.94-4.29-3.22-1.61-6.73-2.42-10.25-2.42h0Z"/>
        <path class="cls-1" d="M822.23,718.88v104.06h-104.2v-49.91s10.42,0,10.42,0c24.18,0,43.86-19.68,43.87-43.87v-10.28h49.92M823.23,717.88h-51.92v11.28c0,23.67-19.19,42.86-42.87,42.87h-11.41s0,51.91,0,51.91h106.19v-106.06h0Z"/>
      </g>
      <g>
        <path class="cls-1" d="M406.33,209.02v50.11s-50.91,0-50.91,0h-96.45v96.06h0v51.31s-50.11,0-50.11,0v-197.47h197.48M407.33,208.02h-199.47v199.47s52.11,0,52.11,0v-51.91s0,0,0,0v-95.45h147.37v-52.11h0Z"/>
        <path class="cls-1" d="M307.83,285.96c3.4,0,6.79.8,9.8,2.31,2.1,1.05,4.01,2.43,5.68,4.1,8.54,8.54,8.54,22.43,0,30.97-4.14,4.14-9.64,6.41-15.49,6.41s-11.35-2.28-15.49-6.41c-1.74-1.74-3.15-3.72-4.21-5.9-2.92-6-2.92-13.16,0-19.17,1.06-2.18,2.48-4.17,4.21-5.9,1.67-1.67,3.58-3.05,5.68-4.1,3.02-1.51,6.41-2.31,9.81-2.31M307.83,284.96c-3.52,0-7.04.81-10.25,2.42-2.14,1.07-4.15,2.5-5.94,4.29-1.85,1.85-3.32,3.94-4.41,6.17-3.07,6.31-3.07,13.73,0,20.04,1.08,2.23,2.55,4.32,4.41,6.17,4.47,4.47,10.33,6.71,16.19,6.71s11.72-2.24,16.19-6.71c8.94-8.94,8.94-23.44,0-32.39-1.79-1.79-3.8-3.22-5.94-4.29-3.22-1.61-6.73-2.42-10.25-2.42h0Z"/>
        <path class="cls-1" d="M406.34,302.44v104.06h-104.2v-49.91s10.42,0,10.42,0c24.19,0,43.86-19.68,43.87-43.87v-10.28h49.92M407.34,301.44h-51.92v11.28c0,23.67-19.19,42.86-42.87,42.87h-11.41s0,51.91,0,51.91h106.19v-106.06h0Z"/>
      </g>
      <g>
        <path class="cls-1" d="M417.23,209.02h197.47v197.47h-50.11s0-50.91,0-50.91v-96.45h-96.04s-.41,0-.41,0h-50.91s0-50.11,0-50.11M416.23,208.02v52.11h51.91s0,0,0,0h95.45v147.37h52.11v-199.47h-199.47Z"/>
        <path class="cls-1" d="M515.86,285.09v1c3.31,0,6.62.76,9.58,2.2,2.18,1.06,4.17,2.48,5.9,4.21,1.67,1.67,3.05,3.58,4.1,5.68,3.08,6.14,3.08,13.47,0,19.61-1.05,2.1-2.43,4.01-4.1,5.68-4.14,4.14-9.64,6.41-15.49,6.41s-11.35-2.28-15.49-6.41c-8.54-8.54-8.54-22.43,0-30.97,1.74-1.74,3.72-3.15,5.9-4.21,2.96-1.44,6.27-2.2,9.58-2.2v-1M515.86,285.09c-3.43,0-6.87.77-10.02,2.3-2.23,1.08-4.32,2.55-6.17,4.41-8.94,8.94-8.94,23.44,0,32.39,4.47,4.47,10.33,6.71,16.19,6.71s11.72-2.24,16.19-6.71c1.79-1.79,3.22-3.8,4.29-5.94,3.22-6.43,3.22-14.07,0-20.51-1.07-2.14-2.5-4.15-4.29-5.94-1.85-1.85-3.94-3.32-6.17-4.41-3.15-1.53-6.59-2.3-10.02-2.3h0Z"/>
        <path class="cls-1" d="M417.23,302.3h49.91s0,10.42,0,10.42c0,24.18,19.68,43.86,43.87,43.87h10.28v49.92h-104.06v-104.2M416.23,301.3v106.19h106.06s0-51.91,0-51.91h-11.28c-23.67,0-42.86-19.19-42.87-42.87v-11.41s-51.91,0-51.91,0h0Z"/>
      </g>
      <g>
        <path class="cls-1" d="M614.56,417.57v197.47h-197.47v-50.11s50.91,0,50.91,0h96.45v-96.04h0v-51.33s50.11,0,50.11,0M615.56,416.57h-52.11v51.91s0,0,0,0v95.45h-147.37v52.11h199.47v-199.47h0Z"/>
        <path class="cls-1" d="M515.59,494.3c5.85,0,11.35,2.28,15.49,6.41,1.74,1.74,3.15,3.72,4.21,5.9,2.92,6,2.92,13.16,0,19.17-1.06,2.18-2.48,4.17-4.21,5.9-1.67,1.67-3.58,3.05-5.68,4.1-3.02,1.51-6.41,2.31-9.8,2.31s-6.79-.8-9.8-2.31c-2.1-1.05-4.01-2.43-5.68-4.1-8.54-8.54-8.54-22.43,0-30.97,4.14-4.14,9.64-6.41,15.49-6.41M515.59,493.3c-5.86,0-11.72,2.24-16.19,6.71-8.94,8.94-8.94,23.44,0,32.39,1.79,1.79,3.8,3.22,5.94,4.29,3.22,1.61,6.73,2.42,10.25,2.42s7.04-.81,10.25-2.42c2.14-1.07,4.15-2.5,5.94-4.29,1.85-1.85,3.32-3.94,4.41-6.17,3.07-6.31,3.07-13.73,0-20.04-1.08-2.23-2.56-4.32-4.41-6.17-4.47-4.47-10.33-6.71-16.19-6.71h0Z"/>
        <path class="cls-1" d="M521.28,417.57v49.91s-10.42,0-10.42,0c-24.18,0-43.86,19.68-43.87,43.87v10.28h-49.92v-104.06h104.2M522.28,416.57h-106.19v106.06s51.91,0,51.91,0v-11.28c0-23.67,19.19-42.86,42.87-42.87h11.41s0-51.91,0-51.91h0Z"/>
      </g>
      <g>
        <path class="cls-1" d="M258.81,417.57v147.37h96.04s.41,0,.41,0h50.91s0,50.11,0,50.11h-197.47v-197.47h50.11M259.81,416.57h-52.11v199.47h199.47s0-52.11,0-52.11h-51.91s0,0,0,0h-95.45v-147.37h0Z"/>
        <path class="cls-1" d="M307.55,494.17c5.85,0,11.35,2.28,15.49,6.41,8.54,8.54,8.54,22.43,0,30.97-1.74,1.74-3.72,3.15-5.9,4.21-2.96,1.44-6.27,2.2-9.58,2.2s-6.62-.76-9.58-2.2c-2.18-1.06-4.17-2.48-5.9-4.21-1.67-1.67-3.05-3.58-4.1-5.68-3.07-6.14-3.07-13.47,0-19.61,1.05-2.1,2.43-4.01,4.1-5.68,4.14-4.14,9.64-6.41,15.49-6.41M307.55,493.17c-5.86,0-11.72,2.24-16.19,6.71-1.79,1.79-3.22,3.8-4.29,5.94-3.22,6.43-3.22,14.07,0,20.51,1.07,2.14,2.5,4.15,4.29,5.94,1.85,1.85,3.94,3.32,6.17,4.41,3.15,1.53,6.59,2.3,10.02,2.3s6.87-.77,10.02-2.3c2.23-1.08,4.32-2.55,6.17-4.41,8.94-8.94,8.94-23.44,0-32.39-4.47-4.47-10.33-6.71-16.19-6.71h0Z"/>
        <path class="cls-1" d="M302.12,417.56h104.06v104.2h-49.91s0-10.42,0-10.42c0-24.18-19.68-43.86-43.87-43.87h-10.28v-49.92M301.12,416.56v51.92h11.28c23.67,0,42.86,19.19,42.87,42.87v11.41s51.91,0,51.91,0v-106.19h-106.06Z"/>
      </g>
      <g>
        <path class="cls-1" d="M822.38,209.02v50.11s-50.91,0-50.91,0h-96.45v96.06h0v51.31s-50.11,0-50.11,0v-197.47h197.47M823.38,208.02h-199.47v199.47s52.11,0,52.11,0v-51.91s0,0,0,0v-95.45h147.37v-52.11h0Z"/>
        <path class="cls-1" d="M723.88,285.96c3.4,0,6.79.8,9.8,2.31,2.1,1.05,4.01,2.43,5.68,4.1,8.54,8.54,8.54,22.43,0,30.97-4.14,4.14-9.64,6.41-15.49,6.41s-11.35-2.28-15.49-6.41c-1.74-1.74-3.15-3.72-4.21-5.9-2.92-6-2.92-13.16,0-19.17,1.06-2.18,2.48-4.17,4.21-5.9,1.67-1.67,3.58-3.05,5.68-4.1,3.02-1.51,6.41-2.31,9.8-2.31M723.88,284.96c-3.52,0-7.04.81-10.25,2.42-2.14,1.07-4.15,2.5-5.94,4.29-1.85,1.85-3.32,3.94-4.41,6.17-3.07,6.31-3.07,13.73,0,20.04,1.09,2.23,2.56,4.32,4.41,6.17,4.47,4.47,10.33,6.71,16.19,6.71s11.72-2.24,16.19-6.71c8.94-8.94,8.94-23.44,0-32.39-1.79-1.79-3.8-3.22-5.94-4.29-3.22-1.61-6.73-2.42-10.25-2.42h0Z"/>
        <path class="cls-1" d="M822.39,302.44v104.06h-104.2v-49.91s10.42,0,10.42,0c24.18,0,43.86-19.68,43.87-43.87v-10.28h49.92M823.39,301.44h-51.92v11.28c0,23.67-19.19,42.86-42.87,42.87h-11.41s0,51.91,0,51.91h106.19v-106.06h0Z"/>
      </g>
      <g>
        <path class="cls-1" d="M674.87,417.57v147.37h96.04s.41,0,.41,0h50.91s0,50.11,0,50.11h-197.47v-197.47h50.11M675.87,416.57h-52.11v199.47h199.47s0-52.11,0-52.11h-51.91s0,0,0,0h-95.45v-147.37h0Z"/>
        <path class="cls-1" d="M723.6,494.17c5.85,0,11.35,2.28,15.49,6.41,4.14,4.14,6.42,9.64,6.42,15.49s-2.28,11.35-6.42,15.49c-1.74,1.74-3.72,3.15-5.9,4.21-2.96,1.44-6.27,2.2-9.58,2.2s-6.62-.76-9.58-2.2c-2.18-1.06-4.17-2.48-5.9-4.21-1.67-1.67-3.05-3.58-4.1-5.68-3.08-6.14-3.08-13.47,0-19.61,1.05-2.1,2.43-4.01,4.1-5.68,4.14-4.14,9.64-6.41,15.49-6.41M723.6,493.17c-5.86,0-11.72,2.24-16.19,6.71-1.79,1.79-3.22,3.8-4.29,5.94-3.22,6.43-3.22,14.07,0,20.51,1.07,2.14,2.5,4.15,4.29,5.94,1.85,1.85,3.94,3.32,6.17,4.41,3.15,1.53,6.59,2.3,10.02,2.3s6.87-.77,10.02-2.3c2.23-1.08,4.32-2.55,6.17-4.41,8.94-8.94,8.94-23.44,0-32.39-4.47-4.47-10.33-6.71-16.19-6.71h0Z"/>
        <path class="cls-1" d="M718.17,417.56h104.06v104.2h-49.91s0-10.42,0-10.42c0-24.18-19.68-43.86-43.87-43.87h-10.28v-49.92M717.17,416.56v51.92h11.28c23.67,0,42.86,19.19,42.87,42.87v11.41s51.91,0,51.91,0v-106.19h-106.06Z"/>
      </g>
    </g>
  </g>
</svg>