<?xml version="1.0" encoding="UTF-8"?>
<svg id="Camada_2" data-name="Camada 2" xmlns="http://www.w3.org/2000/svg" viewBox="0 0 824.48 824.59">
  <defs>
    <style>
      .cls-1 {
        fill: #f9f9f9;
      }

      .cls-2 {
        fill: none;
        stroke: #f9f9f9;
        stroke-miterlimit: 10;
      }
    </style>
  </defs>
  <g id="Camada_1-2" data-name="Camada 1">
    <g>
      <g>
        <g>
          <path class="cls-1" d="M199.03,1v50.11s-50.91,0-50.91,0H51.67v96.06h0v51.31s-50.11,0-50.11,0V1h197.48M200.03,0H.56v199.47s52.11,0,52.11,0v-51.91s0,0,0,0V52.11h147.37V0h0Z"/>
          <path class="cls-2" d="M84.34,116.04c-1.85-1.85-3.32-3.94-4.41-6.17-3.07-6.31-3.07-13.73,0-20.04,1.09-2.23,2.55-4.32,4.41-6.17s3.8-3.22,5.94-4.29c6.43-3.22,14.07-3.22,20.51,0,2.14,1.07,4.15,2.5,5.94,4.29,8.94,8.94,8.94,23.44,0,32.39-8.94,8.94-23.44,8.94-32.39,0Z"/>
          <path class="cls-2" d="M93.84,199.48v-51.91s11.42,0,11.42,0c23.67,0,42.86-19.19,42.87-42.87v-11.28h51.92v106.06h-106.2Z"/>
        </g>
        <g>
          <path class="cls-1" d="M209.93,1h197.47v197.47h-50.11s0-50.91,0-50.91V51.11h-96.02s-.44,0-.44,0h-50.91s0-50.11,0-50.11M208.93,0v52.11h51.91s0,0,0,0h95.45v147.37h52.11V0h-199.47Z"/>
          <path class="cls-2" d="M292.37,83.78c1.85-1.85,3.94-3.32,6.17-4.41,6.31-3.07,13.73-3.07,20.04,0,2.23,1.09,4.32,2.55,6.17,4.41,1.79,1.79,3.22,3.8,4.29,5.94,3.22,6.43,3.22,14.07,0,20.51-1.07,2.14-2.5,4.15-4.29,5.94-8.94,8.94-23.44,8.94-32.39,0-8.94-8.94-8.94-23.44,0-32.39Z"/>
          <path class="cls-2" d="M208.93,93.28h51.91s0,11.42,0,11.42c0,23.67,19.19,42.86,42.87,42.87h11.28v51.92h-106.06v-106.2Z"/>
        </g>
        <g>
          <path class="cls-1" d="M407.26,209.55v197.47h-197.47v-50.11s50.91,0,50.91,0h96.45v-96.04h0v-51.33s50.11,0,50.11,0M408.26,208.55h-52.11v51.91s0,0,0,0v95.45h-147.37v52.11h199.47v-199.47h0Z"/>
          <path class="cls-2" d="M324.48,291.99c1.85,1.85,3.32,3.94,4.41,6.17,3.07,6.31,3.07,13.73,0,20.04-1.09,2.23-2.55,4.32-4.41,6.17s-3.8,3.22-5.94,4.29c-6.43,3.22-14.07,3.22-20.51,0-2.14-1.07-4.15-2.5-5.94-4.29-8.94-8.94-8.94-23.44,0-32.39,8.94-8.94,23.44-8.94,32.39,0Z"/>
          <path class="cls-2" d="M314.98,208.55v51.91s-11.42,0-11.42,0c-23.67,0-42.86,19.19-42.87,42.87v11.28h-51.92s0-106.06,0-106.06h106.19Z"/>
        </g>
        <g>
          <path class="cls-1" d="M51.52,209.55v147.37h96.04s.42,0,.42,0h50.91s0,50.11,0,50.11H1.41v-197.47h50.11M52.52,208.55H.41v199.47h199.47s0-52.11,0-52.11h-51.91s0,0,0,0H52.52v-147.37h0Z"/>
          <path class="cls-2" d="M116.44,324.25c-1.85,1.85-3.94,3.32-6.17,4.41-6.31,3.07-13.73,3.07-20.04,0-2.23-1.09-4.32-2.55-6.17-4.41-1.79-1.79-3.22-3.8-4.29-5.94-3.22-6.43-3.22-14.07,0-20.51,1.07-2.14,2.5-4.15,4.29-5.94,8.94-8.94,23.44-8.94,32.39,0,8.94,8.94,8.94,23.44,0,32.39Z"/>
          <path class="cls-2" d="M199.88,314.74h-51.91s0-11.42,0-11.42c0-23.67-19.19-42.86-42.87-42.87h-11.28v-51.92h106.06v106.2Z"/>
        </g>
      </g>
      <g>
        <g>
          <path class="cls-1" d="M615.11,1v50.11s-50.91,0-50.91,0h-96.45v96.06h0v51.31s-50.11,0-50.11,0V1h197.47M616.11,0h-199.47v199.47s52.11,0,52.11,0v-51.91s0,0,0,0V52.11h147.37V0h0Z"/>
          <path class="cls-2" d="M500.41,116.04c-1.85-1.85-3.32-3.94-4.41-6.17-3.07-6.31-3.07-13.73,0-20.04,1.09-2.23,2.55-4.32,4.41-6.17,1.79-1.79,3.8-3.22,5.94-4.29,6.43-3.22,14.07-3.22,20.51,0,2.14,1.07,4.15,2.5,5.94,4.29,8.94,8.94,8.94,23.44,0,32.39-8.94,8.94-23.44,8.94-32.39,0Z"/>
          <path class="cls-2" d="M509.91,199.48v-51.91s11.42,0,11.42,0c23.67,0,42.86-19.19,42.87-42.87v-11.28h51.92v106.06h-106.2Z"/>
        </g>
        <g>
          <path class="cls-1" d="M626.01,1h197.47v197.47h-50.11s0-50.91,0-50.91V51.11h-96.02s-.44,0-.44,0h-50.91s0-50.11,0-50.11M625.01,0v52.11h51.91s0,0,0,0h95.45v147.37h52.11V0h-199.47Z"/>
          <path class="cls-2" d="M708.45,83.78c1.85-1.85,3.94-3.32,6.17-4.41,6.31-3.07,13.73-3.07,20.04,0,2.23,1.09,4.32,2.55,6.17,4.41s3.22,3.8,4.29,5.94c3.22,6.43,3.22,14.07,0,20.51-1.07,2.14-2.5,4.15-4.29,5.94-8.94,8.94-23.44,8.94-32.39,0s-8.94-23.44,0-32.39Z"/>
          <path class="cls-2" d="M625.01,93.28h51.91s0,11.42,0,11.42c0,23.67,19.19,42.86,42.87,42.87h11.28v51.92s-106.06,0-106.06,0v-106.19Z"/>
        </g>
        <g>
          <path class="cls-1" d="M823.33,209.55v197.47h-197.47v-50.11s50.91,0,50.91,0h96.45v-96.04h0v-51.33s50.11,0,50.11,0M824.33,208.55h-52.11v51.91s0,0,0,0v95.45h-147.37v52.11h199.47v-199.47h0Z"/>
          <path class="cls-2" d="M740.56,291.99c1.85,1.85,3.32,3.94,4.41,6.17,3.07,6.31,3.07,13.73,0,20.04-1.09,2.23-2.55,4.32-4.41,6.17-1.79,1.79-3.8,3.22-5.94,4.29-6.43,3.22-14.07,3.22-20.51,0-2.14-1.07-4.15-2.5-5.94-4.29-8.94-8.94-8.94-23.44,0-32.39s23.44-8.94,32.39,0Z"/>
          <path class="cls-2" d="M731.05,208.55v51.91s-11.42,0-11.42,0c-23.67,0-42.86,19.19-42.87,42.87v11.28h-51.92s0-106.06,0-106.06h106.19Z"/>
        </g>
        <g>
          <path class="cls-1" d="M467.59,209.55v147.37h96.04s.42,0,.42,0h50.91s0,50.11,0,50.11h-197.48v-197.47h50.11M468.59,208.55h-52.11v199.47h199.48s0-52.11,0-52.11h-51.91s0,0,0,0h-95.45v-147.37h0Z"/>
          <path class="cls-2" d="M532.52,324.25c-1.85,1.85-3.94,3.32-6.17,4.41-6.31,3.07-13.73,3.07-20.04,0-2.23-1.09-4.32-2.55-6.17-4.41-1.79-1.79-3.22-3.8-4.29-5.94-3.22-6.43-3.22-14.07,0-20.51,1.07-2.14,2.5-4.15,4.29-5.94,8.94-8.94,23.44-8.94,32.39,0,8.94,8.94,8.94,23.44,0,32.39Z"/>
          <path class="cls-2" d="M615.96,314.74h-51.91s0-11.42,0-11.42c0-23.67-19.19-42.86-42.87-42.87h-11.28v-51.92s106.06,0,106.06,0v106.19Z"/>
        </g>
      </g>
      <g>
        <g>
          <path class="cls-1" d="M198.62,417.57v50.11s-50.91,0-50.91,0H51.26v96.04h0v51.33s-50.11,0-50.11,0v-197.47h197.47M199.62,416.57H.15v199.47s52.11,0,52.11,0v-51.91s0,0,0,0v-95.45h147.37v-52.11h0Z"/>
          <path class="cls-2" d="M83.93,532.6c-1.85-1.85-3.32-3.94-4.41-6.17-3.07-6.31-3.07-13.73,0-20.04,1.09-2.23,2.55-4.32,4.41-6.17,1.79-1.79,3.8-3.22,5.94-4.29,6.43-3.22,14.07-3.22,20.51,0,2.14,1.07,4.15,2.5,5.94,4.29,8.94,8.94,8.94,23.44,0,32.39-8.94,8.94-23.44,8.94-32.39,0Z"/>
          <path class="cls-2" d="M93.43,616.04v-51.91s11.42,0,11.42,0c23.67,0,42.86-19.19,42.87-42.87v-11.28h51.92v106.06h-106.2Z"/>
        </g>
        <g>
          <path class="cls-1" d="M209.52,417.56h197.47v197.47h-50.11s0-50.91,0-50.91v-96.45h-96.04s-.41,0-.41,0h-50.91s0-50.11,0-50.11M208.52,416.56v52.11h51.91s0,0,0,0h95.45v147.37h52.11v-199.47h-199.47Z"/>
          <path class="cls-2" d="M291.96,500.34c1.85-1.85,3.94-3.32,6.17-4.41,6.31-3.07,13.73-3.07,20.04,0,2.23,1.09,4.32,2.55,6.17,4.41,1.79,1.79,3.22,3.8,4.29,5.94,3.22,6.43,3.22,14.07,0,20.51-1.07,2.14-2.5,4.15-4.29,5.94-8.94,8.94-23.44,8.94-32.39,0-8.94-8.94-8.94-23.44,0-32.39Z"/>
          <path class="cls-2" d="M208.52,509.84h51.91s0,11.42,0,11.42c0,23.67,19.19,42.86,42.87,42.87h11.28v51.92h-106.06v-106.2Z"/>
        </g>
        <g>
          <path class="cls-1" d="M406.85,626.11v197.47h-197.48v-50.11s50.91,0,50.91,0h96.45v-96.06h0v-51.31s50.11,0,50.11,0M407.85,625.11h-52.11v51.91s0,0,0,0v95.45h-147.37v52.11h199.47v-199.47h0Z"/>
          <path class="cls-2" d="M324.07,708.55c1.85,1.85,3.32,3.94,4.41,6.17,3.07,6.31,3.07,13.73,0,20.04-1.09,2.23-2.55,4.32-4.41,6.17-1.79,1.79-3.8,3.22-5.94,4.29-6.43,3.22-14.07,3.22-20.51,0-2.14-1.07-4.15-2.5-5.94-4.29-8.94-8.94-8.94-23.44,0-32.39,8.94-8.94,23.44-8.94,32.39,0Z"/>
          <path class="cls-2" d="M314.57,625.11v51.91s-11.42,0-11.42,0c-23.67,0-42.86,19.19-42.87,42.87v11.28h-51.92v-106.06h106.2Z"/>
        </g>
        <g>
          <path class="cls-1" d="M51.11,626.11v147.37h96.06s.39,0,.39,0h50.91s0,50.11,0,50.11H1v-197.47h50.11M52.11,625.11H0v199.47h199.47s0-52.11,0-52.11h-51.91s0,0,0,0H52.11v-147.37h0Z"/>
          <path class="cls-2" d="M116.04,740.81c-1.85,1.85-3.94,3.32-6.17,4.41-6.31,3.07-13.73,3.07-20.04,0-2.23-1.09-4.32-2.55-6.17-4.41s-3.22-3.8-4.29-5.94c-3.22-6.43-3.22-14.07,0-20.51,1.07-2.14,2.5-4.15,4.29-5.94,8.94-8.94,23.44-8.94,32.39,0,8.94,8.94,8.94,23.44,0,32.39Z"/>
          <path class="cls-2" d="M199.47,731.31h-51.91s0-11.42,0-11.42c0-23.67-19.19-42.86-42.87-42.87h-11.28v-51.92h106.06v106.2Z"/>
        </g>
      </g>
      <g>
        <g>
          <path class="cls-1" d="M614.7,417.57v50.11s-50.91,0-50.91,0h-96.45v96.04h0v51.33s-50.11,0-50.11,0v-197.47h197.48M615.7,416.57h-199.47v199.47s52.11,0,52.11,0v-51.91s0,0,0,0v-95.45h147.37v-52.11h0Z"/>
          <path class="cls-2" d="M500,532.6c-1.85-1.85-3.32-3.94-4.41-6.17-3.07-6.31-3.07-13.73,0-20.04,1.09-2.23,2.55-4.32,4.41-6.17s3.8-3.22,5.94-4.29c6.43-3.22,14.07-3.22,20.51,0,2.14,1.07,4.15,2.5,5.94,4.29,8.94,8.94,8.94,23.44,0,32.39-8.94,8.94-23.44,8.94-32.39,0Z"/>
          <path class="cls-2" d="M509.5,616.04v-51.91s11.42,0,11.42,0c23.67,0,42.86-19.19,42.87-42.87v-11.28h51.92v106.06h-106.2Z"/>
        </g>
        <g>
          <path class="cls-1" d="M625.6,417.56h197.47v197.47h-50.11s0-50.91,0-50.91v-96.45h-96.04s-.41,0-.41,0h-50.91s0-50.11,0-50.11M624.6,416.56v52.11h51.91s0,0,0,0h95.45v147.37h52.11v-199.47h-199.47Z"/>
          <path class="cls-2" d="M708.04,500.34c1.85-1.85,3.94-3.32,6.17-4.41,6.31-3.07,13.73-3.07,20.04,0,2.23,1.09,4.32,2.55,6.17,4.41,1.79,1.79,3.22,3.8,4.29,5.94,3.22,6.43,3.22,14.07,0,20.51-1.07,2.14-2.5,4.15-4.29,5.94-8.94,8.94-23.44,8.94-32.39,0-8.94-8.94-8.94-23.44,0-32.39Z"/>
          <path class="cls-2" d="M624.6,509.84h51.91s0,11.42,0,11.42c0,23.67,19.19,42.86,42.87,42.87h11.28v51.92s-106.06,0-106.06,0v-106.19Z"/>
        </g>
        <g>
          <path class="cls-1" d="M822.93,626.11v197.47h-197.47v-50.11s50.91,0,50.91,0h96.45v-96.06h0v-51.3s50.11,0,50.11,0M823.93,625.11h-52.11v51.91s0,0,0,0v95.45h-147.37v52.11h199.47v-199.47h0Z"/>
          <path class="cls-2" d="M740.15,708.55c1.85,1.85,3.32,3.94,4.41,6.17,3.07,6.31,3.07,13.73,0,20.04-1.09,2.23-2.55,4.32-4.41,6.17s-3.8,3.22-5.94,4.29c-6.43,3.22-14.07,3.22-20.51,0-2.14-1.07-4.15-2.5-5.94-4.29-8.94-8.94-8.94-23.44,0-32.39,8.94-8.94,23.44-8.94,32.39,0Z"/>
          <path class="cls-2" d="M730.64,625.11v51.91s-11.42,0-11.42,0c-23.67,0-42.86,19.19-42.87,42.87v11.28h-51.92v-106.06h106.2Z"/>
        </g>
        <g>
          <path class="cls-1" d="M467.18,626.11v147.37h96.01s.44,0,.44,0h50.91s0,50.11,0,50.11h-197.47v-197.47h50.11M468.18,625.11h-52.11v199.47h199.47s0-52.11,0-52.11h-51.91s0,0,0,0h-95.45v-147.37h0Z"/>
          <path class="cls-2" d="M532.11,740.81c-1.85,1.85-3.94,3.32-6.17,4.41-6.31,3.07-13.73,3.07-20.04,0-2.23-1.09-4.32-2.55-6.17-4.41-1.79-1.79-3.22-3.8-4.29-5.94-3.22-6.43-3.22-14.07,0-20.51,1.07-2.14,2.5-4.15,4.29-5.94,8.94-8.94,23.44-8.94,32.39,0,8.94,8.94,8.94,23.44,0,32.39Z"/>
          <path class="cls-2" d="M615.55,731.31h-51.91s0-11.42,0-11.42c0-23.67-19.19-42.86-42.87-42.87h-11.28v-51.92s106.06,0,106.06,0v106.19Z"/>
        </g>
      </g>
    </g>
  </g>
</svg>