<?xml version="1.0" encoding="UTF-8"?>
<svg id="Camada_2" data-name="Camada 2" xmlns="http://www.w3.org/2000/svg" viewBox="0 0 823.64 823.94">
  <defs>
    <style>
      .cls-1 {
        fill: #17181a;
      }
    </style>
  </defs>
  <g id="Camada_1-2" data-name="Camada 1">
    <g>
      <g>
        <polygon class="cls-1" points="199.89 0 199.89 199.48 .42 199.48 .41 147.37 52.33 147.37 147.78 147.37 147.78 51.92 147.78 51.91 147.78 0 199.89 0"/>
        <path class="cls-1" d="M116.11,83.44c1.85,1.85,3.32,3.94,4.41,6.17,3.07,6.31,3.07,13.73,0,20.04-1.09,2.23-2.55,4.32-4.41,6.17-1.79,1.79-3.8,3.22-5.94,4.29-6.43,3.22-14.07,3.22-20.51,0-2.14-1.07-4.15-2.5-5.94-4.29-8.94-8.94-8.94-23.44,0-32.39,8.94-8.94,23.44-8.94,32.39,0Z"/>
        <path class="cls-1" d="M106.61,0v51.91s-11.42,0-11.42,0c-23.67,0-42.86,19.19-42.87,42.87v11.28H.41S.42,0,.42,0h106.19Z"/>
      </g>
      <g>
        <polygon class="cls-1" points="615.97 0 615.96 199.48 416.49 199.48 416.49 147.37 468.4 147.37 563.85 147.37 563.85 51.92 563.86 51.91 563.85 0 615.97 0"/>
        <path class="cls-1" d="M532.19,83.44c1.85,1.85,3.32,3.94,4.41,6.17,3.07,6.31,3.07,13.73,0,20.04-1.09,2.23-2.55,4.32-4.41,6.17-1.79,1.79-3.8,3.22-5.94,4.29-6.43,3.22-14.07,3.22-20.51,0-2.14-1.07-4.15-2.5-5.94-4.29-8.94-8.94-8.94-23.44,0-32.39,8.94-8.94,23.44-8.94,32.39,0Z"/>
        <path class="cls-1" d="M522.68,0v51.91s-11.42,0-11.42,0c-23.67,0-42.86,19.19-42.87,42.87v11.28h-51.92s0-106.06,0-106.06h106.19Z"/>
      </g>
      <g>
        <polygon class="cls-1" points="407.59 199.48 208.12 199.48 208.12 0 260.22 0 260.22 51.92 260.22 147.37 355.68 147.37 355.68 147.37 407.59 147.37 407.59 199.48"/>
        <path class="cls-1" d="M324.15,115.7c-1.85,1.85-3.94,3.32-6.17,4.41-6.31,3.07-13.73,3.07-20.04,0-2.23-1.09-4.32-2.55-6.17-4.41-1.79-1.79-3.22-3.8-4.29-5.94-3.22-6.43-3.22-14.07,0-20.51,1.07-2.14,2.5-4.15,4.29-5.94,8.94-8.94,23.44-8.94,32.39,0s8.94,23.44,0,32.39Z"/>
        <path class="cls-1" d="M407.59,106.2h-51.91s0-11.42,0-11.42c0-23.67-19.19-42.86-42.87-42.87h-11.28V0s106.06,0,106.06,0v106.19Z"/>
      </g>
      <g>
        <polygon class="cls-1" points="823.64 199.48 624.17 199.48 624.17 0 676.27 0 676.27 51.92 676.27 147.37 771.73 147.37 771.73 147.37 823.64 147.37 823.64 199.48"/>
        <path class="cls-1" d="M740.2,115.7c-1.85,1.85-3.94,3.32-6.17,4.41-6.31,3.07-13.73,3.07-20.04,0-2.23-1.09-4.32-2.55-6.17-4.41-1.79-1.79-3.22-3.8-4.29-5.94-3.22-6.43-3.22-14.07,0-20.51,1.07-2.14,2.5-4.15,4.29-5.94,8.94-8.94,23.44-8.94,32.39,0,8.94,8.94,8.94,23.44,0,32.39Z"/>
        <path class="cls-1" d="M823.64,106.2h-51.91s0-11.42,0-11.42c0-23.67-19.19-42.86-42.87-42.87h-11.28V0s106.06,0,106.06,0v106.19Z"/>
      </g>
      <g>
        <polygon class="cls-1" points=".16 208.02 199.63 208.02 199.63 407.49 147.52 407.5 147.52 355.58 147.52 260.13 52.07 260.13 52.07 260.13 .16 260.13 .16 208.02"/>
        <path class="cls-1" d="M83.6,291.8c1.85-1.85,3.94-3.32,6.17-4.41,6.31-3.07,13.73-3.07,20.04,0,2.23,1.09,4.32,2.55,6.17,4.41,1.79,1.79,3.22,3.8,4.29,5.94,3.22,6.43,3.22,14.07,0,20.51-1.07,2.14-2.5,4.15-4.29,5.94-8.94,8.94-23.44,8.94-32.39,0s-8.94-23.44,0-32.39Z"/>
        <path class="cls-1" d="M.16,301.3h51.91s0,11.42,0,11.42c0,23.67,19.19,42.86,42.87,42.87h11.28v51.92s-106.06,0-106.06,0v-106.19Z"/>
      </g>
      <g>
        <polygon class="cls-1" points="199.48 416.57 199.48 616.04 0 616.04 0 563.93 51.92 563.93 147.37 563.93 147.37 468.48 147.37 468.48 147.37 416.57 199.48 416.57"/>
        <path class="cls-1" d="M115.7,500c1.85,1.85,3.32,3.94,4.41,6.17,3.07,6.31,3.07,13.73,0,20.04-1.09,2.23-2.55,4.32-4.41,6.17-1.79,1.79-3.8,3.22-5.94,4.29-6.43,3.22-14.07,3.22-20.51,0-2.14-1.07-4.15-2.5-5.94-4.29-8.94-8.94-8.94-23.44,0-32.39s23.44-8.94,32.39,0Z"/>
        <path class="cls-1" d="M106.2,416.57v51.91s-11.42,0-11.42,0c-23.67,0-42.86,19.19-42.87,42.87v11.28H0s0-106.06,0-106.06h106.19Z"/>
      </g>
      <g>
        <polygon class="cls-1" points="0 624.46 199.47 624.46 199.47 823.93 147.37 823.93 147.37 772.02 147.37 676.57 51.91 676.57 51.91 676.57 0 676.57 0 624.46"/>
        <path class="cls-1" d="M83.44,708.24c1.85-1.85,3.94-3.32,6.17-4.41,6.31-3.07,13.73-3.07,20.04,0,2.23,1.09,4.32,2.55,6.17,4.41,1.79,1.79,3.22,3.8,4.29,5.94,3.22,6.43,3.22,14.07,0,20.51-1.07,2.14-2.5,4.15-4.29,5.94-8.94,8.94-23.44,8.94-32.39,0-8.94-8.94-8.94-23.44,0-32.39Z"/>
        <path class="cls-1" d="M0,717.74h51.91s0,11.42,0,11.42c0,23.67,19.19,42.86,42.87,42.87h11.28v51.92S0,823.93,0,823.93v-106.19Z"/>
      </g>
      <g>
        <polygon class="cls-1" points="207.7 823.94 207.7 624.46 407.17 624.46 407.18 676.57 355.26 676.57 259.81 676.57 259.81 772.02 259.81 772.02 259.81 823.94 207.7 823.94"/>
        <path class="cls-1" d="M291.48,740.5c-1.85-1.85-3.32-3.94-4.41-6.17-3.07-6.31-3.07-13.73,0-20.04,1.09-2.23,2.55-4.32,4.41-6.17,1.79-1.79,3.8-3.22,5.94-4.29,6.43-3.22,14.07-3.22,20.51,0,2.14,1.07,4.15,2.5,5.94,4.29,8.94,8.94,8.94,23.44,0,32.39-8.94,8.94-23.44,8.94-32.39,0Z"/>
        <path class="cls-1" d="M300.98,823.93v-51.91s11.42,0,11.42,0c23.67,0,42.86-19.19,42.87-42.87v-11.28h51.92v106.06h-106.2Z"/>
      </g>
      <g>
        <polygon class="cls-1" points="416.08 624.46 615.55 624.46 615.55 823.93 563.44 823.93 563.44 772.02 563.44 676.57 467.99 676.57 467.99 676.57 416.08 676.57 416.08 624.46"/>
        <path class="cls-1" d="M499.51,708.24c1.85-1.85,3.94-3.32,6.17-4.41,6.31-3.07,13.73-3.07,20.04,0,2.23,1.09,4.32,2.55,6.17,4.41,1.79,1.79,3.22,3.8,4.29,5.94,3.22,6.43,3.22,14.07,0,20.51-1.07,2.14-2.5,4.15-4.29,5.94-8.94,8.94-23.44,8.94-32.39,0-8.94-8.94-8.94-23.44,0-32.39Z"/>
        <path class="cls-1" d="M416.08,717.74h51.91s0,11.42,0,11.42c0,23.67,19.19,42.86,42.87,42.87h11.28v51.92s-106.06,0-106.06,0v-106.19Z"/>
      </g>
      <g>
        <polygon class="cls-1" points="623.75 823.94 623.75 624.46 823.22 624.46 823.23 676.57 771.31 676.57 675.86 676.57 675.86 772.02 675.86 772.02 675.86 823.94 623.75 823.94"/>
        <path class="cls-1" d="M707.53,740.5c-1.85-1.85-3.32-3.94-4.41-6.17-3.07-6.31-3.07-13.73,0-20.04,1.09-2.23,2.55-4.32,4.41-6.17,1.79-1.79,3.8-3.22,5.94-4.29,6.43-3.22,14.07-3.22,20.51,0,2.14,1.07,4.15,2.5,5.94,4.29,8.94,8.94,8.94,23.44,0,32.39s-23.44,8.94-32.39,0Z"/>
        <path class="cls-1" d="M717.03,823.93v-51.91s11.42,0,11.42,0c23.67,0,42.86-19.19,42.87-42.87v-11.28h51.92v106.06h-106.2Z"/>
      </g>
      <g>
        <polygon class="cls-1" points="207.85 407.5 207.86 208.02 407.33 208.02 407.33 260.13 355.42 260.13 259.97 260.13 259.97 355.58 259.96 355.59 259.97 407.5 207.85 407.5"/>
        <path class="cls-1" d="M291.63,324.06c-1.85-1.85-3.32-3.94-4.41-6.17-3.07-6.31-3.07-13.73,0-20.04,1.09-2.23,2.55-4.32,4.41-6.17,1.79-1.79,3.8-3.22,5.94-4.29,6.43-3.22,14.07-3.22,20.51,0,2.14,1.07,4.15,2.5,5.94,4.29,8.94,8.94,8.94,23.44,0,32.39s-23.44,8.94-32.39,0Z"/>
        <path class="cls-1" d="M301.14,407.5v-51.91s11.42,0,11.42,0c23.67,0,42.86-19.19,42.87-42.87v-11.28h51.92s0,106.06,0,106.06h-106.19Z"/>
      </g>
      <g>
        <polygon class="cls-1" points="416.23 208.02 615.71 208.02 615.71 407.49 563.6 407.5 563.6 355.58 563.6 260.13 468.14 260.13 468.14 260.13 416.23 260.13 416.23 208.02"/>
        <path class="cls-1" d="M499.67,291.8c1.85-1.85,3.94-3.32,6.17-4.41,6.31-3.07,13.73-3.07,20.04,0,2.23,1.09,4.32,2.55,6.17,4.41,1.79,1.79,3.22,3.8,4.29,5.94,3.22,6.43,3.22,14.07,0,20.51-1.07,2.14-2.5,4.15-4.29,5.94-8.94,8.94-23.44,8.94-32.39,0-8.94-8.94-8.94-23.44,0-32.39Z"/>
        <path class="cls-1" d="M416.23,301.3h51.91s0,11.42,0,11.42c0,23.67,19.19,42.86,42.87,42.87h11.28v51.92s-106.06,0-106.06,0v-106.19Z"/>
      </g>
      <g>
        <polygon class="cls-1" points="615.56 416.57 615.55 616.04 416.08 616.04 416.08 563.93 467.99 563.93 563.45 563.93 563.45 468.48 563.45 468.48 563.45 416.57 615.56 416.57"/>
        <path class="cls-1" d="M531.78,500c1.85,1.85,3.32,3.94,4.41,6.17,3.07,6.31,3.07,13.73,0,20.04-1.09,2.23-2.55,4.32-4.41,6.17-1.79,1.79-3.8,3.22-5.94,4.29-6.43,3.22-14.07,3.22-20.51,0-2.14-1.07-4.15-2.5-5.94-4.29-8.94-8.94-8.94-23.44,0-32.39,8.94-8.94,23.44-8.94,32.39,0Z"/>
        <path class="cls-1" d="M522.28,416.57v51.91s-11.42,0-11.42,0c-23.67,0-42.86,19.19-42.87,42.87v11.28h-51.92s0-106.06,0-106.06h106.19Z"/>
      </g>
      <g>
        <polygon class="cls-1" points="407.18 616.04 207.71 616.04 207.71 416.57 259.81 416.57 259.81 468.48 259.81 563.93 355.27 563.93 355.27 563.93 407.18 563.93 407.18 616.04"/>
        <path class="cls-1" d="M323.74,532.26c-1.85,1.85-3.94,3.32-6.17,4.41-6.31,3.07-13.73,3.07-20.04,0-2.23-1.09-4.32-2.55-6.17-4.41-1.79-1.79-3.22-3.8-4.29-5.94-3.22-6.43-3.22-14.07,0-20.51,1.07-2.14,2.5-4.15,4.29-5.94,8.94-8.94,23.44-8.94,32.39,0s8.94,23.44,0,32.39Z"/>
        <path class="cls-1" d="M407.18,522.76h-51.91s0-11.42,0-11.42c0-23.67-19.19-42.86-42.87-42.87h-11.28v-51.92s106.06,0,106.06,0v106.19Z"/>
      </g>
      <g>
        <polygon class="cls-1" points="623.9 407.5 623.91 208.02 823.38 208.02 823.38 260.13 771.47 260.13 676.02 260.13 676.02 355.58 676.01 355.59 676.02 407.5 623.9 407.5"/>
        <path class="cls-1" d="M707.68,324.06c-1.85-1.85-3.32-3.94-4.41-6.17-3.07-6.31-3.07-13.73,0-20.04,1.09-2.23,2.55-4.32,4.41-6.17,1.79-1.79,3.8-3.22,5.94-4.29,6.43-3.22,14.07-3.22,20.51,0,2.14,1.07,4.15,2.5,5.94,4.29,8.94,8.94,8.94,23.44,0,32.39-8.94,8.94-23.44,8.94-32.39,0Z"/>
        <path class="cls-1" d="M717.19,407.5v-51.91s11.42,0,11.42,0c23.67,0,42.86-19.19,42.87-42.87v-11.28h51.92s0,106.06,0,106.06h-106.19Z"/>
      </g>
      <g>
        <polygon class="cls-1" points="823.23 616.04 623.76 616.04 623.76 416.57 675.86 416.57 675.86 468.48 675.86 563.93 771.32 563.93 771.32 563.93 823.23 563.93 823.23 616.04"/>
        <path class="cls-1" d="M739.79,532.26c-1.85,1.85-3.94,3.32-6.17,4.41-6.31,3.07-13.73,3.07-20.04,0-2.23-1.09-4.32-2.55-6.17-4.41-1.79-1.79-3.22-3.8-4.29-5.94-3.22-6.43-3.22-14.07,0-20.51,1.07-2.14,2.5-4.15,4.29-5.94,8.94-8.94,23.44-8.94,32.39,0,8.94,8.94,8.94,23.44,0,32.39Z"/>
        <path class="cls-1" d="M823.23,522.76h-51.91s0-11.42,0-11.42c0-23.67-19.19-42.86-42.87-42.87h-11.28v-51.92s106.06,0,106.06,0v106.19Z"/>
      </g>
    </g>
  </g>
</svg>